<?xml version="1.0" encoding="UTF-8" standalone="no"?>
<svg width="148px" height="76px" viewBox="0 0 148 76" version="1.1" xmlns="http://www.w3.org/2000/svg" xmlns:xlink="http://www.w3.org/1999/xlink" xmlns:sketch="http://www.bohemiancoding.com/sketch/ns">
    <!-- Generator: Sketch 3.4.3 (16618) - http://www.bohemiancoding.com/sketch -->
    <title>Gus_Logo</title>
    <desc>Created with Sketch.</desc>
    <defs></defs>
    <g id="WF" stroke="none" stroke-width="1" fill="none" fill-rule="evenodd" sketch:type="MSPage">
        <g id="Gus_Home" sketch:type="MSArtboardGroup" transform="translate(-61.000000, -43.000000)" fill="#FFFFFF">
            <g id="Gus_Logo" sketch:type="MSLayerGroup" transform="translate(61.000000, 43.000000)">
                <path d="M130.036788,46.1632828 C130.036788,50.5250155 128.436748,53.8651476 125.235193,56.1792502 C122.035114,58.4948291 117.663392,59.6529876 112.123715,59.6529876 C109.109446,59.6529876 106.461638,59.2499573 104.176604,58.4431585 C101.889358,57.6341453 99.9663611,56.5712082 98.4068752,55.2506566 C96.8451774,53.9315812 95.67501,52.4235392 94.8971104,50.728007 C94.1169988,49.0317366 93.7254683,47.2668182 93.7254683,45.4376807 C93.7254683,45.1675175 93.8596652,45.0324359 94.130271,45.0324359 L103.409765,45.0324359 C103.677421,45.0324359 103.811618,45.1675175 103.811618,45.4376807 C103.811618,46.7287063 104.471542,47.9400117 105.789179,49.0701204 C107.106815,50.2024437 109.21931,50.767129 112.123715,50.767129 C112.984934,50.767129 113.897768,50.7147203 114.867377,50.6069503 C115.834775,50.4984421 116.722539,50.2829021 117.53067,49.9603302 C118.337326,49.6370202 119.009047,49.16608 119.54731,48.5460334 C120.084097,47.9274631 120.353966,47.1324747 120.353966,46.1632828 C120.353966,45.3033372 120.084097,44.6286674 119.54731,44.1437024 C119.009047,43.6587374 118.324053,43.2955672 117.488641,43.0534538 C116.654703,42.8113403 115.755141,42.6496853 114.785532,42.5692269 C113.818135,42.4880303 112.931845,42.3942852 112.123715,42.2865152 C110.025967,42.0717133 107.928218,41.7749767 105.829733,41.3977817 C103.731248,41.0213248 101.836269,40.3879915 100.141112,39.4985198 C98.4466919,38.6112626 97.0744918,37.398481 96.0267238,35.8638656 C94.9767437,34.3292502 94.4532284,32.2971212 94.4532284,29.7652642 C94.4532284,28.0424204 94.8543444,26.4133217 95.6617377,24.8779681 C96.4654444,23.3433528 97.606118,22.0109907 99.0815464,20.8794056 C100.556238,19.7485587 102.328079,18.8472766 104.393384,18.1740831 C106.458689,17.5008897 108.75552,17.1642929 111.278717,17.1642929 C113.853527,17.1642929 116.215245,17.4610295 118.362395,18.0530264 C120.508071,18.6464996 122.359546,19.5470435 123.916082,20.759087 C125.471144,21.9696542 126.692925,23.4651476 127.57774,25.2418765 C128.462555,27.0178671 128.907174,29.0669736 128.907174,31.3818143 C128.907174,31.6512393 128.800259,31.7848446 128.586429,31.7848446 L119.623994,31.7848446 C119.356337,31.7848446 119.22509,31.6512393 119.22509,31.3818143 C119.22509,30.8429643 119.089418,30.2494911 118.821024,29.602871 C118.551893,28.9569891 118.107274,28.3797552 117.488641,27.8674786 C116.871483,27.3559402 116.049342,26.9255983 115.028856,26.5742385 C114.006158,26.2250932 112.768892,26.0494134 111.315584,26.0494134 C108.89709,26.0494134 107.092806,26.4007731 105.910104,27.10054 C104.725927,27.8010451 104.134576,28.6883023 104.134576,29.7652642 C104.134576,30.4111461 104.337346,30.9367094 104.739936,31.3404779 C105.143264,31.7449845 105.682264,32.0668182 106.353986,32.3104079 C107.027182,32.5532595 107.794022,32.7540365 108.653766,32.9164297 C109.514986,33.0766084 110.402013,33.2124281 111.315584,33.3201981 C113.091849,33.535 115.06941,33.7911383 117.246792,34.0871368 C119.427122,34.3831352 121.456297,34.9492968 123.340215,35.7834071 C125.221921,36.6197319 126.809426,37.8435859 128.100518,39.4586597 C129.39161,41.0737335 130.036788,43.3095921 130.036788,46.1632828 M75.3788362,55.8566783 C74.5168792,56.7727234 73.2670785,57.6341453 71.627222,58.4431585 C69.9866281,59.2499573 68.3047429,59.6529876 66.5845157,59.6529876 C63.1949382,59.6529876 60.3709047,59.1289005 58.1109406,58.078512 C55.8524512,57.0281235 54.0230969,55.6145649 52.6243523,53.8370979 C51.2241331,52.0611072 50.2301913,50.0149534 49.6388402,47.6978982 C49.0467517,45.3823193 48.7510761,42.9604468 48.7510761,40.4278516 L48.7510761,18.3748601 C48.7510761,18.1061733 48.8845357,17.9718298 49.1544041,17.9718298 L58.0298326,17.9718298 C58.2989637,17.9718298 58.4346353,18.1061733 58.4346353,18.3748601 L58.4346353,40.4278516 C58.4346353,41.6679448 58.593902,42.8910606 58.9175967,44.1038423 C59.240554,45.3166239 59.765544,46.4208974 60.4910921,47.4144483 C61.2188521,48.4124281 62.1456955,49.2214413 63.2745715,49.8385354 C64.4041849,50.4593201 65.7771224,50.767129 67.3904344,50.767129 C68.9499203,50.767129 70.2963133,50.4984421 71.4251893,49.9603302 C72.5555401,49.4222183 73.4823834,48.7084266 74.2094061,47.8189549 C74.9349542,46.9309596 75.4599442,45.9211694 75.7829016,44.7903225 C76.1043842,43.6587374 76.2666002,42.4754817 76.2666002,41.2353885 L76.2666002,18.3748601 C76.2666002,18.1061733 76.4007971,17.9718298 76.6706656,17.9718298 L85.6272021,17.9718298 C85.8402949,17.9718298 85.9486847,18.1061733 85.9486847,18.3748601 L85.9486847,58.4431585 C85.9486847,58.7111072 85.8137505,58.8454507 85.5460941,58.8454507 L77.8806497,58.8454507 C77.5031287,58.8454507 77.2354723,58.6845338 77.0732563,58.3612238 L76.2666002,55.9363986 C76.1589478,55.7762199 76.0247509,55.669188 75.8625349,55.6145649 C75.7017935,55.5606799 75.5403149,55.6426146 75.3788362,55.8566783 M9.76319251,38.4082712 C9.76319251,42.0717133 10.6214627,45.0464608 12.3446393,47.3354662 C14.0648665,49.6229953 16.6470506,50.767129 20.0904544,50.767129 C23.4785572,50.767129 25.9929055,49.7182168 27.6334994,47.6167016 C29.275568,45.5174009 30.0947589,42.447432 30.0947589,38.4082712 C30.0947589,34.7470435 29.275568,31.7715579 27.6334994,29.4818143 C25.9929055,27.193547 23.4785572,26.0494134 20.0904544,26.0494134 C16.6470506,26.0494134 14.0648665,27.193547 12.3446393,29.4818143 C10.6214627,31.7715579 9.76319251,34.7470435 9.76319251,38.4082712 M0.0781586289,38.4082712 C0.0781586289,35.2858936 0.562594659,32.4181779 1.53072937,29.8058625 C2.49960143,27.193547 3.81723794,24.9466162 5.48511359,23.060641 C7.15151455,21.1768803 9.10326823,19.7227234 11.3366879,18.6989083 C13.5664209,17.6758314 15.9473097,17.1642929 18.4756676,17.1642929 C20.8432842,17.1642929 22.9668394,17.5274631 24.8500199,18.2538034 C26.7324631,18.9823582 28.2676166,19.9109518 29.4488442,21.0410606 C29.7179753,21.3119619 29.9347549,21.3119619 30.0947589,21.0410606 L30.9014149,18.4560567 C31.0090674,18.1327467 31.2781985,17.9718298 31.7088083,17.9718298 L39.37499,17.9718298 C39.6433838,17.9718298 39.7790554,18.1061733 39.7790554,18.3748601 L39.7790554,57.6341453 C39.7790554,60.380066 39.2806098,62.8572999 38.284456,65.0658469 C37.2897768,67.2729176 35.9050418,69.1574165 34.1295138,70.7208197 C32.3539857,72.2812704 30.2687724,73.4925758 27.8753487,74.3547358 C25.4826624,75.2161577 22.8872061,75.6472378 20.0904544,75.6472378 C17.5090076,75.6472378 15.1133719,75.2848057 12.9087086,74.556251 C10.7025707,73.8299106 8.77957354,72.8599806 7.13824233,71.6479371 C5.49691112,70.4373699 4.21982862,69.0238112 3.30625747,67.4079992 C2.39047429,65.7921873 1.93479474,64.0959169 1.93479474,62.3184499 C1.93479474,62.0490249 2.06899163,61.9146814 2.33812276,61.9146814 L11.0520725,61.9146814 C11.2681148,61.9146814 11.4273814,62.0490249 11.5365086,62.3184499 C11.5903348,62.5878749 11.7790953,62.9783566 12.1013153,63.4913714 C12.4242726,64.0014336 12.9212435,64.5011616 13.59444,64.9846503 C14.2676365,65.4681391 15.1266441,65.8874087 16.1766242,66.236554 C17.2251295,66.5864375 18.5287565,66.7621173 20.0904544,66.7621173 C21.9714229,66.7621173 23.5316461,66.5045027 24.7696493,65.9944406 C26.0069151,65.4814258 27.0156038,64.8089705 27.7964528,63.9748601 C28.5750897,63.1385354 29.139159,62.1700816 29.4908729,61.0665462 C29.8403747,59.9622727 30.04167,58.8188772 30.0947589,57.6341453 L30.0947589,56.2604468 L30.0947589,55.9363986 C30.0947589,55.7762199 30.0158629,55.669188 29.8536469,55.6145649 C29.6921682,55.5606799 29.557234,55.5872533 29.4488442,55.6950233 C29.1273615,56.0190715 28.6429255,56.4095532 27.9977481,56.8657304 C27.3525707,57.3248601 26.5569749,57.755202 25.6168593,58.1582323 C24.675269,58.5642152 23.5994819,58.9133605 22.3887605,59.2086208 C21.1787764,59.5053574 19.8751495,59.6529876 18.4756676,59.6529876 C15.9473097,59.6529876 13.5664209,59.140711 11.3366879,58.1198485 C9.10326823,57.0967716 7.15151455,55.6426146 5.48511359,53.7566395 C3.81723794,51.8714025 2.49960143,49.6370202 1.53072937,47.0520163 C0.562594659,44.4670124 0.0781586289,41.5867483 0.0781586289,38.4082712" id="Fill-20" sketch:type="MSShapeGroup"></path>
                <path d="M141.854446,4.97461927 C141.51158,4.78270008 140.963733,4.68674048 140.210903,4.68674048 L139.051058,4.68674048 L139.051058,7.48064103 L140.277264,7.48064103 C140.851656,7.48064103 141.283741,7.42232712 141.571305,7.3086519 C142.102931,7.09827894 142.366164,6.69598679 142.366164,6.10325175 C142.366164,5.54225719 142.196574,5.16580031 141.854446,4.97461927 L141.854446,4.97461927 Z M140.38934,3.75962315 C141.34494,3.75962315 142.045418,3.85115385 142.490775,4.03642968 C143.287108,4.36785936 143.685275,5.02038462 143.685275,5.98957653 C143.685275,6.68048563 143.435315,7.18685703 142.934657,7.51238151 C142.668475,7.68510878 142.296853,7.81059441 141.820528,7.88736208 C142.422202,7.98332168 142.863872,8.23355478 143.141851,8.64101399 C143.421305,9.04994949 143.560664,9.44707459 143.560664,9.83608003 L143.560664,10.4007653 C143.560664,10.5793978 143.5673,10.7698407 143.580572,10.9728322 C143.593107,11.1765618 143.615965,11.3109052 143.64767,11.3743862 L143.695598,11.4710839 L142.423677,11.4710839 C142.417778,11.4452486 142.411142,11.4194134 142.404506,11.3935781 C142.39787,11.368481 142.391971,11.3396931 142.386072,11.3079526 L142.357316,11.0606721 L142.357316,10.4502214 C142.357316,9.56001166 142.115466,8.97170552 141.630293,8.68677933 C141.34494,8.51995726 140.840596,8.43728438 140.120209,8.43728438 L139.051058,8.43728438 L139.051058,11.4710839 L137.692868,11.4710839 L137.692868,3.75962315 L140.38934,3.75962315 Z M136.259468,3.36618881 C135.087088,4.54649184 134.500899,5.97186092 134.500899,7.64303419 C134.500899,9.32675602 135.083402,10.7624592 136.249882,11.9486674 C137.422262,13.1356138 138.845339,13.7283489 140.522063,13.7283489 C142.198786,13.7283489 143.621863,13.1356138 144.794243,11.9486674 C145.966622,10.7624592 146.552812,9.32675602 146.552812,7.64303419 C146.552812,5.97186092 145.966622,4.54649184 144.794243,3.36618881 C143.615965,2.17998057 142.19215,1.58650738 140.522063,1.58650738 C138.859348,1.58650738 137.438483,2.17998057 136.259468,3.36618881 L136.259468,3.36618881 Z M145.491772,12.6181702 C144.122521,13.9962976 142.464968,14.6849922 140.522063,14.6849922 C138.579157,14.6849922 136.924554,13.9962976 135.562676,12.6181702 C134.203749,11.2474242 133.526128,9.58584693 133.526128,7.63417638 C133.526128,5.7009596 134.211122,4.04897824 135.581847,2.67749417 C136.944462,1.31265346 138.591692,0.629864025 140.522063,0.629864025 C142.464968,0.629864025 144.122521,1.31265346 145.491772,2.67749417 C146.862497,4.04233489 147.547491,5.69431624 147.547491,7.63417638 C147.547491,9.57846542 146.862497,11.2407809 145.491772,12.6181702 L145.491772,12.6181702 Z" id="Fill-21" sketch:type="MSShapeGroup"></path>
            </g>
        </g>
    </g>
</svg>