<?xml version="1.0" encoding="UTF-8" standalone="no"?>
<svg width="88px" height="88px" viewBox="0 0 88 88" version="1.1" xmlns="http://www.w3.org/2000/svg" xmlns:xlink="http://www.w3.org/1999/xlink" xmlns:sketch="http://www.bohemiancoding.com/sketch/ns">
    <!-- Generator: Sketch 3.4.3 (16618) - http://www.bohemiancoding.com/sketch -->
    <title>Icon_Smiley</title>
    <desc>Created with Sketch.</desc>
    <defs></defs>
    <g id="WF" stroke="none" stroke-width="1" fill="none" fill-rule="evenodd" sketch:type="MSPage">
        <g id="Gus_Home" sketch:type="MSArtboardGroup" transform="translate(-1076.000000, -1626.000000)" fill="#02CEFF">
            <g id="Group" sketch:type="MSLayerGroup" transform="translate(135.000000, 1625.000000)">
                <g id="Icon_Smiley" transform="translate(941.000000, 1.000000)" sketch:type="MSShapeGroup">
                    <path d="M44.1316819,80.3178102 C24.0738908,80.3178102 7.73235854,63.9714883 7.73235854,43.9169867 C7.73235854,23.8474273 24.0738908,7.50144127 44.1316819,7.50144127 C64.1923505,7.50144127 80.5395937,23.8474273 80.5395937,43.9169867 C80.5395937,63.9714883 64.1923505,80.3178102 44.1316819,80.3178102 M44.1316819,0.258692063 C19.9897619,0.258692063 0.485550787,19.7630889 0.485550787,43.9169867 C0.485550787,68.0561898 19.9897619,87.5602514 44.1316819,87.5602514 C68.2732457,87.5602514 87.7871619,68.0561898 87.7871619,43.9169867 C87.7871619,19.7630889 68.2732457,0.258692063 44.1316819,0.258692063" id="Fill-1"></path>
                    <path d="M31.874099,34.2505848 L31.874099,33.88088 C31.874099,31.8358438 30.2025879,30.163739 28.1574749,30.163739 C26.1155956,30.163739 24.4465917,31.8358438 24.4465917,33.88088 L24.4465917,34.2505848 C24.4465917,36.2956279 26.1155956,37.9623479 28.1574749,37.9623479 C30.2025879,37.9623479 31.874099,36.2956279 31.874099,34.2505848" id="Fill-3"></path>
                    <path d="M60.1059587,30.1635575 C58.0608527,30.1635575 56.3922051,31.8356622 56.3922051,33.8806984 L56.3922051,34.2504102 C56.3922051,36.2958025 58.0608527,37.9621733 60.1059587,37.9621733 C62.1478451,37.9621733 63.8197194,36.2958025 63.8197194,34.2504102 L63.8197194,33.8806984 C63.8197194,31.8356622 62.1478451,30.1635575 60.1059587,30.1635575" id="Fill-4"></path>
                    <path d="M56.5783251,51.7160705 C49.6979403,58.5819911 38.7459841,58.5819911 31.8742108,51.7160705 C30.3887778,50.2272013 28.1572235,50.2272013 26.6753803,51.7160705 C25.1892349,53.1952527 25.1892349,55.4274705 26.6753803,56.9156203 C31.5016844,61.7433213 37.8134216,64.1551917 44.1316121,64.1551917 C50.4498025,64.1551917 56.7525721,61.7433213 61.7778679,56.9156203 C63.2604305,55.4274705 63.2604305,53.1952527 61.7778679,51.7160705 C60.2895714,50.2272013 58.0608876,50.2272013 56.5783251,51.7160705" id="Fill-5"></path>
                </g>
            </g>
        </g>
    </g>
</svg>