<?xml version="1.0" encoding="UTF-8" standalone="no"?>
<svg width="89px" height="90px" viewBox="0 0 89 90" version="1.1" xmlns="http://www.w3.org/2000/svg" xmlns:xlink="http://www.w3.org/1999/xlink" xmlns:sketch="http://www.bohemiancoding.com/sketch/ns">
    <!-- Generator: Sketch 3.4.3 (16618) - http://www.bohemiancoding.com/sketch -->
    <title>Icon_Whatsapp</title>
    <desc>Created with Sketch.</desc>
    <defs></defs>
    <g id="WF" stroke="none" stroke-width="1" fill="none" fill-rule="evenodd" sketch:type="MSPage">
        <g id="Gus_Home" sketch:type="MSArtboardGroup" transform="translate(-281.000000, -1625.000000)" fill="#02CEFF">
            <g id="Group" sketch:type="MSLayerGroup" transform="translate(135.000000, 1625.000000)">
                <g id="Icon_Whatsapp" transform="translate(146.000000, 0.000000)" sketch:type="MSShapeGroup">
                    <path d="M64.4365438,53.7559327 C63.3362073,53.2070344 57.942041,50.5365222 56.9350523,50.1667977 C55.9308945,49.7999246 55.1982804,49.6150624 54.4685044,50.7213774 C53.7387212,51.8248553 51.6342268,54.3105123 50.9893059,55.04711 C50.3500397,55.7837005 49.7135972,55.8747095 48.6132678,55.3258183 C47.5214239,54.7712387 43.9856506,53.599513 39.7936472,49.8454255 C36.5294247,46.9217962 34.325935,43.3127586 33.6866688,42.2035922 C33.0474025,41.1001214 33.6187775,40.5028851 34.1703576,39.9539868 C34.6625392,39.4591294 35.2650324,38.6628095 35.8166126,38.0200652 C36.3625381,37.3744765 36.5463958,36.9137501 36.9112874,36.1799968 C37.2733481,35.4433991 37.095145,34.7978176 36.8207704,34.2489194 C36.5463958,33.6914955 34.3485607,28.2651435 33.4349198,26.0581948 C32.5439046,23.9024428 31.6415802,24.1925282 30.9683647,24.1612485 C30.3319294,24.1328059 29.6049771,24.1242732 28.8751939,24.1242732 C28.1312634,24.1242732 26.9432479,24.4001444 25.9390901,25.5036152 C24.9321014,26.6099302 22.1006618,29.274761 22.1006618,34.7068086 C22.1006618,40.1388491 26.029607,45.3831902 26.5783563,46.1169435 C27.1271056,46.8563783 34.3174495,57.9991819 45.3207579,62.7799452 C47.9428833,63.9147028 49.9908028,64.5944225 51.5804828,65.103494 C54.2082699,65.9396334 56.5984482,65.8201819 58.4907903,65.5414735 C60.6037702,65.2229456 64.9824622,62.8652657 65.8989339,60.2942882 C66.8125748,57.7176221 66.8125748,55.5078363 66.5382002,55.04711 C66.2638255,54.5892207 65.5312115,54.3105123 64.4365438,53.7559327 M44.4127717,81.2403657 L44.3986316,81.2403657 C37.8503848,81.2403657 31.4266042,79.4685523 25.8202857,76.1268461 L24.4880092,75.3333705 L10.6787107,78.9765391 L14.3587378,65.4305547 L13.49601,64.0426871 C9.83578482,58.2011025 7.91515525,51.446598 7.91515525,44.5157711 C7.91798613,24.2835372 24.2928352,7.8196119 44.4297499,7.8196119 C54.1743278,7.82246328 63.3390381,11.6419614 70.2351984,18.5813139 C77.1228517,25.5149922 80.9103953,34.7380883 80.9103953,44.5442065 C80.9047051,64.7792776 64.5298845,81.2403657 44.4127717,81.2403657 M75.4681397,13.314226 C67.1859519,4.96708885 56.1515251,0.371159274 44.4127717,0.362676411 C20.2111435,0.362676411 0.504182724,20.165428 0.501354122,44.5129268 C0.495696919,52.2969587 2.51815671,59.8875955 6.35941585,66.5823778 L0.130805539,89.4680594 L23.4103055,83.3221715 C29.8227768,86.8430457 37.0442319,88.6944909 44.3929769,88.6944909 L44.4127717,88.6944909 C68.6172309,88.6944909 88.3185461,68.8917054 88.3270102,44.5470508 C88.3298553,32.7501329 83.7616154,21.6585259 75.4681397,13.314226" id="Fill-1"></path>
                </g>
            </g>
        </g>
    </g>
</svg>